#N canvas 336 60 900 651 10;
#X floatatom 301 263 3 0 0 0 - - -, f 3;
#X floatatom 328 263 3 0 0 0 - - -, f 3;
#X floatatom 355 263 3 0 0 0 - - -, f 3;
#X floatatom 382 263 3 0 0 0 - - -, f 3;
#X floatatom 409 264 5 0 0 0 - - -, f 5;
#X obj 307 227 unpack 0 0 0 0 0;
#X msg 171 116 status;
#X obj 588 537 mrpeach/packOSC;
#X msg 457 293 disconnect;
#X obj 171 148 mrpeach/udpreceive 9999;
#X obj 171 184 mrpeach/unpackOSC;
#X obj 66 310 mrpeach/routeOSC /analog /heading /pitch /roll;
#X floatatom 59 335 5 0 0 0 - - -, f 5;
#X floatatom 117 343 5 0 0 0 - - -, f 5;
#X floatatom 191 338 5 0 0 0 - - -, f 5;
#X floatatom 258 343 5 0 0 0 - - -, f 5;
#X text 153 344 x;
#X text 229 344 y;
#X obj 339 343 s calibration;
#X text 297 346 z;
#X floatatom 55 435 5 0 0 0 - - -, f 5;
#X floatatom 107 437 5 0 0 0 - - -, f 5;
#X floatatom 181 432 5 0 0 0 - - -, f 5;
#X floatatom 248 437 5 0 0 0 - - -, f 5;
#X obj 57 373 r calibration;
#X obj 56 404 mrpeach/routeOSC /sys /gyro /accel /mag;
#X obj 306 199 route from;
#X msg 694 213 connect 255.255.255.255 8888;
#X obj 588 603 mrpeach/udpsend;
#X obj 591 278 ggee/shell;
#X msg 591 252 ifconfig en0;
#X obj 591 299 route inet;
#X obj 591 366 unpack f f f f;
#X floatatom 591 389 5 0 0 0 - - -, f 5;
#X floatatom 625 391 5 0 0 0 - - -, f 5;
#X floatatom 659 391 5 0 0 0 - - -, f 5;
#X floatatom 696 392 5 0 0 0 - - -, f 5;
#X obj 591 319 symbol;
#X obj 608 473 pack f f f f f;
#X msg 610 494 send /led \$1 \$2 \$3 \$4 \$5;
#X obj 577 108 bng 15 250 50 0 empty empty empty 17 7 0 10 -262144
-1 -1;
#X obj 590 150 t b b b b;
#X msg 564 223 0;
#X text 730 194 connecting to all;
#X text 690 365 sending our ip;
#X text 516 208 turning on builtin led;
#X text 52 598 deken: mrpeach \, ggee \, s2l should be in zexy?;
#X msg 455 533 send /led 1;
#X text 53 583 pd vanilla 0.47.1;
#X obj 591 342 s2l .;
#X connect 5 0 0 0;
#X connect 5 1 1 0;
#X connect 5 2 2 0;
#X connect 5 3 3 0;
#X connect 5 4 4 0;
#X connect 6 0 9 0;
#X connect 7 0 28 0;
#X connect 8 0 28 0;
#X connect 9 0 10 0;
#X connect 9 1 26 0;
#X connect 10 0 11 0;
#X connect 11 0 12 0;
#X connect 11 1 13 0;
#X connect 11 2 14 0;
#X connect 11 3 15 0;
#X connect 11 4 18 0;
#X connect 24 0 25 0;
#X connect 25 0 20 0;
#X connect 25 1 21 0;
#X connect 25 2 22 0;
#X connect 25 3 23 0;
#X connect 26 0 5 0;
#X connect 27 0 28 0;
#X connect 29 0 31 0;
#X connect 30 0 29 0;
#X connect 31 0 37 0;
#X connect 32 0 33 0;
#X connect 32 1 34 0;
#X connect 32 2 35 0;
#X connect 32 3 36 0;
#X connect 33 0 38 1;
#X connect 34 0 38 2;
#X connect 35 0 38 3;
#X connect 36 0 38 4;
#X connect 37 0 49 0;
#X connect 38 0 39 0;
#X connect 39 0 7 0;
#X connect 40 0 41 0;
#X connect 41 0 8 0;
#X connect 41 1 42 0;
#X connect 41 2 30 0;
#X connect 41 3 27 0;
#X connect 42 0 38 0;
#X connect 47 0 7 0;
#X connect 49 0 32 0;
